<svg width="1200" height="430" viewBox="0 0 1200 430" fill="none" xmlns="http://www.w3.org/2000/svg">
  <defs>
    <linearGradient id="bg" x1="0" y1="0" x2="1200" y2="430">
      <stop stop-color="#020617"/>
      <stop offset=".42" stop-color="#0d1117"/>
      <stop offset="1" stop-color="#062b2f"/>
    </linearGradient>
    <linearGradient id="neon" x1="0" y1="0" x2="1" y2="1">
      <stop stop-color="#22c55e"/>
      <stop offset=".52" stop-color="#38bdf8"/>
      <stop offset="1" stop-color="#a78bfa"/>
    </linearGradient>
    <radialGradient id="core" cx="50%" cy="50%" r="50%">
      <stop stop-color="#67e8f9"/>
      <stop offset=".55" stop-color="#22c55e"/>
      <stop offset="1" stop-color="#0f172a"/>
    </radialGradient>
    <filter id="glow" x="-40%" y="-40%" width="180%" height="180%">
      <feGaussianBlur stdDeviation="14" result="blur"/>
      <feMerge><feMergeNode in="blur"/><feMergeNode in="SourceGraphic"/></feMerge>
    </filter>
    <pattern id="grid" width="44" height="44" patternUnits="userSpaceOnUse">
      <path d="M44 0H0V44" stroke="#1f2937" stroke-width="1" opacity=".55"/>
    </pattern>
  </defs>
  <rect width="1200" height="430" rx="34" fill="url(#bg)"/>
  <rect width="1200" height="430" rx="34" fill="url(#grid)" opacity=".55"/>
  <path d="M0 316 C176 252 310 376 502 306 C718 226 882 310 1200 188 V430 H0Z" fill="#22c55e" opacity=".09"/>
  <path d="M0 354 C230 275 382 405 612 336 C836 268 972 326 1200 246 V430 H0Z" fill="#38bdf8" opacity=".08"/>

  <g transform="translate(780 48)" filter="url(#glow)">
    <path d="M182 0L336 89V267L182 356L28 267V89L182 0Z" fill="#050b14" stroke="url(#neon)" stroke-width="2"/>
    <path d="M182 48L294 113V243L182 308L70 243V113L182 48Z" fill="#0b1220" stroke="#38bdf8" opacity=".75"/>
    <circle cx="182" cy="178" r="58" fill="url(#core)"/>
    <circle cx="182" cy="178" r="96" stroke="#22c55e" stroke-dasharray="8 13" opacity=".7">
      <animateTransform attributeName="transform" type="rotate" from="0 182 178" to="360 182 178" dur="18s" repeatCount="indefinite"/>
    </circle>
    <circle cx="182" cy="178" r="126" stroke="#38bdf8" stroke-dasharray="3 18" opacity=".5">
      <animateTransform attributeName="transform" type="rotate" from="360 182 178" to="0 182 178" dur="26s" repeatCount="indefinite"/>
    </circle>
    <g stroke="url(#neon)" stroke-width="2" opacity=".72">
      <path d="M182 120L236 151V213L182 244L128 213V151L182 120Z"/>
      <path d="M182 120V82M236 151L270 132M236 213L270 232M182 244V282M128 213L94 232M128 151L94 132"/>
    </g>
  </g>

  <g filter="url(#glow)" font-family="Segoe UI, Arial">
    <text x="70" y="104" fill="#86efac" font-size="21" font-weight="800" letter-spacing="2">AGENTIC AI ENGINEER</text>
    <text x="70" y="177" fill="#f8fafc" font-size="60" font-weight="900">Muhammad Anas Waqar</text>
    <text x="72" y="240" fill="#cbd5e1" font-size="24" font-weight="700">
      <tspan>Hi, I am BSc Computer Engineering (3.85/4.0)</tspan>
      <animate attributeName="opacity" values="1;1;0;0;1" dur="6s" repeatCount="indefinite"/>
    </text>
    <text x="72" y="240" fill="#86efac" font-size="24" font-weight="800" opacity="0">
      <tspan>Constantly improving ML skills &amp; building in public</tspan>
      <animate attributeName="opacity" values="0;0;1;1;0" dur="6s" repeatCount="indefinite"/>
    </text>
  </g>

  <g transform="translate(70 304)" font-family="Segoe UI, Arial" font-size="15" font-weight="900">
    <rect width="120" height="44" rx="22" fill="#052e16" stroke="#22c55e"/>
    <text x="60" y="28" text-anchor="middle" fill="#dcfce7">RAG</text>
    <rect x="136" width="160" height="44" rx="22" fill="#082f49" stroke="#38bdf8"/>
    <text x="216" y="28" text-anchor="middle" fill="#e0f2fe">LANGGRAPH</text>
    <rect x="312" width="130" height="44" rx="22" fill="#2e1065" stroke="#a78bfa"/>
    <text x="377" y="28" text-anchor="middle" fill="#ede9fe">FASTAPI</text>
    <rect x="458" width="140" height="44" rx="22" fill="#431407" stroke="#fb923c"/>
    <text x="528" y="28" text-anchor="middle" fill="#fed7aa">CLOUD AI</text>
    <rect x="614" width="90" height="44" rx="22" fill="#1e1b4b" stroke="#818cf8"/>
    <text x="659" y="28" text-anchor="middle" fill="#e0e7ff">ML</text>
  </g>
</svg>
