<svg width="760" height="420" viewBox="0 0 760 420" xmlns="http://www.w3.org/2000/svg">
  <defs>
    <linearGradient id="core" x1="0" y1="0" x2="1" y2="1"><stop stop-color="#22c55e"/><stop offset="1" stop-color="#38bdf8"/></linearGradient>
    <filter id="soft"><feGaussianBlur stdDeviation="6"/></filter>
  </defs>
  <rect width="760" height="420" rx="28" fill="#0d1117"/>
  <ellipse cx="380" cy="210" rx="276" ry="112" fill="none" stroke="#1f6feb" stroke-width="2" opacity=".45"/>
  <ellipse cx="380" cy="210" rx="210" ry="160" fill="none" stroke="#22c55e" stroke-width="2" opacity=".35" transform="rotate(-18 380 210)"/>
  <ellipse cx="380" cy="210" rx="160" ry="210" fill="none" stroke="#a78bfa" stroke-width="2" opacity=".28" transform="rotate(28 380 210)"/>
  <circle cx="380" cy="210" r="78" fill="url(#core)" opacity=".95"/>
  <circle cx="380" cy="210" r="118" fill="#22c55e" opacity=".08" filter="url(#soft)"/>
  <text x="380" y="199" text-anchor="middle" fill="#052e16" font-family="Segoe UI, Arial" font-size="24" font-weight="900">AGENTIC</text>
  <text x="380" y="230" text-anchor="middle" fill="#052e16" font-family="Segoe UI, Arial" font-size="24" font-weight="900">SYSTEMS</text>
  <g font-family="Segoe UI, Arial" font-size="15" font-weight="700">
    <g transform="translate(80 72)"><rect width="118" height="42" rx="21" fill="#111827" stroke="#22c55e"/><text x="59" y="27" text-anchor="middle" fill="#dcfce7">Python</text></g>
    <g transform="translate(255 38)"><rect width="126" height="42" rx="21" fill="#111827" stroke="#38bdf8"/><text x="63" y="27" text-anchor="middle" fill="#e0f2fe">FastAPI</text></g>
    <g transform="translate(520 76)"><rect width="138" height="42" rx="21" fill="#111827" stroke="#a78bfa"/><text x="69" y="27" text-anchor="middle" fill="#ede9fe">LangChain</text></g>
    <g transform="translate(573 196)"><rect width="140" height="42" rx="21" fill="#111827" stroke="#22c55e"/><text x="70" y="27" text-anchor="middle" fill="#dcfce7">LangGraph</text></g>
    <g transform="translate(480 318)"><rect width="112" height="42" rx="21" fill="#111827" stroke="#38bdf8"/><text x="56" y="27" text-anchor="middle" fill="#e0f2fe">Docker</text></g>
    <g transform="translate(260 334)"><rect width="138" height="42" rx="21" fill="#111827" stroke="#60a5fa"/><text x="69" y="27" text-anchor="middle" fill="#dbeafe">Kubernetes</text></g>
    <g transform="translate(88 262)"><rect width="118" height="42" rx="21" fill="#111827" stroke="#f59e0b"/><text x="59" y="27" text-anchor="middle" fill="#fef3c7">AWS</text></g>
    <g transform="translate(94 165)"><rect width="150" height="42" rx="21" fill="#111827" stroke="#34d399"/><text x="75" y="27" text-anchor="middle" fill="#d1fae5">Supabase</text></g>
    <g transform="translate(305 88)"><rect width="146" height="42" rx="21" fill="#111827" stroke="#60a5fa"/><text x="73" y="27" text-anchor="middle" fill="#dbeafe">PostgreSQL</text></g>
    <g transform="translate(402 54)"><rect width="92" height="42" rx="21" fill="#111827" stroke="#f97316"/><text x="46" y="27" text-anchor="middle" fill="#ffedd5">ML</text></g>
  </g>
</svg>
