<svg width="590" height="270" viewBox="0 0 590 270" xmlns="http://www.w3.org/2000/svg">
  <defs>
    <linearGradient id="eco" x1="0" y1="0" x2="1" y2="1"><stop stop-color="#22c55e"/><stop offset=".55" stop-color="#14b8a6"/><stop offset="1" stop-color="#38bdf8"/></linearGradient>
    <filter id="glow"><feGaussianBlur stdDeviation="7" result="b"/><feMerge><feMergeNode in="b"/><feMergeNode in="SourceGraphic"/></feMerge></filter>
  </defs>
  <rect width="590" height="270" rx="28" fill="#0d1117"/>
  <path d="M0 188 C100 120 190 214 290 152 C395 88 472 152 590 92 V270 H0Z" fill="#22c55e" opacity=".14"/>
  <g transform="translate(384 46)" filter="url(#glow)">
    <circle cx="88" cy="88" r="76" fill="url(#eco)" opacity=".95"/>
    <path d="M50 100 C70 52 124 50 146 88 C116 84 84 100 55 142 C45 127 43 112 50 100Z" fill="#052e16"/>
    <circle cx="88" cy="88" r="108" fill="none" stroke="#38bdf8" stroke-width="3" stroke-dasharray="10 12" opacity=".65">
      <animateTransform attributeName="transform" type="rotate" from="0 88 88" to="360 88 88" dur="24s" repeatCount="indefinite"/>
    </circle>
  </g>
  <text x="34" y="52" fill="#86efac" font-family="Segoe UI, Arial" font-size="15" font-weight="800">16/12/2024 - 10/03/2025</text>
  <text x="34" y="92" fill="#f8fafc" font-family="Segoe UI, Arial" font-size="35" font-weight="900">EcoAware</text>
  <text x="34" y="123" fill="#cbd5e1" font-family="Segoe UI, Arial" font-size="16">Sustainability and ecological footprint tracker</text>
  <g font-family="Segoe UI, Arial" font-weight="800">
    <rect x="34" y="150" width="130" height="36" rx="18" fill="#10291d" stroke="#22c55e"/><text x="99" y="173" text-anchor="middle" fill="#dcfce7" font-size="13">Web App</text>
    <rect x="176" y="150" width="132" height="36" rx="18" fill="#10233a" stroke="#38bdf8"/><text x="242" y="173" text-anchor="middle" fill="#e0f2fe" font-size="13">Eco Impact</text>
    <rect x="34" y="198" width="236" height="36" rx="18" fill="#1d2a18" stroke="#a3e635"/><text x="152" y="221" text-anchor="middle" fill="#ecfccb" font-size="13">TEKNOFEST - rank 17</text>
  </g>
  <rect x="398" y="204" width="128" height="36" rx="18" fill="#22c55e"/>
  <text x="462" y="227" text-anchor="middle" fill="#052e16" font-family="Segoe UI, Arial" font-size="13" font-weight="900">OPEN SITE</text>
</svg>
