<svg width="590" height="270" viewBox="0 0 590 270" xmlns="http://www.w3.org/2000/svg">
  <defs>
    <linearGradient id="cyber" x1="0" y1="0" x2="1" y2="1"><stop stop-color="#38bdf8"/><stop offset=".55" stop-color="#a78bfa"/><stop offset="1" stop-color="#22c55e"/></linearGradient>
    <filter id="glow"><feGaussianBlur stdDeviation="7" result="b"/><feMerge><feMergeNode in="b"/><feMergeNode in="SourceGraphic"/></feMerge></filter>
  </defs>
  <rect width="590" height="270" rx="28" fill="#0d1117"/>
  <path d="M0 194 C130 124 222 246 362 166 C450 116 506 140 590 94 V270 H0Z" fill="#38bdf8" opacity=".10"/>
  <g transform="translate(386 38)" filter="url(#glow)">
    <path d="M82 166C48 139 38 100 52 59C56 47 72 49 73 62L76 106L85 30C87 14 109 16 109 32L108 108L123 36C127 21 148 25 146 41L134 115L158 65C164 52 183 60 178 74L153 142C143 169 111 188 82 166Z" fill="#111827" stroke="url(#cyber)" stroke-width="4"/>
    <circle cx="75" cy="108" r="5" fill="#22c55e"/><circle cx="108" cy="108" r="5" fill="#38bdf8"/><circle cx="135" cy="115" r="5" fill="#a78bfa"/>
    <path d="M76 108H108H135" stroke="#64748b" stroke-width="2"/>
  </g>
  <text x="34" y="74" fill="#f8fafc" font-family="Segoe UI, Arial" font-size="35" font-weight="900">Cyber Palm</text>
  <text x="34" y="108" fill="#cbd5e1" font-family="Segoe UI, Arial" font-size="16">AI smart glove for real-time sign language recognition</text>
  <g font-family="Segoe UI, Arial" font-weight="800">
    <rect x="34" y="150" width="116" height="36" rx="18" fill="#13233a" stroke="#38bdf8"/><text x="92" y="173" text-anchor="middle" fill="#e0f2fe" font-size="13">ML</text>
    <rect x="162" y="150" width="160" height="36" rx="18" fill="#1d1633" stroke="#a78bfa"/><text x="242" y="173" text-anchor="middle" fill="#ede9fe" font-size="13">Embedded AI</text>
    <rect x="34" y="198" width="250" height="36" rx="18" fill="#10291d" stroke="#22c55e"/><text x="159" y="221" text-anchor="middle" fill="#dcfce7" font-size="13">TEKNOFEST finalist - rank 4</text>
  </g>
  <rect x="398" y="204" width="128" height="36" rx="18" fill="#38bdf8"/>
  <text x="462" y="227" text-anchor="middle" fill="#02111f" font-family="Segoe UI, Arial" font-size="13" font-weight="900">OPEN DRIVE</text>
</svg>
